<?xml version="1.0" encoding="iso-8859-1"?>
<!-- Generator: Adobe Illustrator 19.0.0, SVG Export Plug-In . SVG Version: 6.00 Build 0)  -->
<svg version="1.1" id="Layer_1" xmlns="http://www.w3.org/2000/svg" xmlns:xlink="http://www.w3.org/1999/xlink" x="0px" y="0px"
	 viewBox="0 0 512 512" style="enable-background:new 0 0 512 512;" xml:space="preserve">
<g>
	<path style="fill:#556080;" d="M379.586,512H132.414c-9.754,0-17.655-7.901-17.655-17.655V17.655
		C114.759,7.901,122.659,0,132.414,0h247.172c9.754,0,17.655,7.901,17.655,17.655v476.69C397.241,504.099,389.341,512,379.586,512"
		/>
	<g>
		<path style="fill:#FFD06C;" d="M317.793,256c0-34.127-27.666-61.793-61.793-61.793S194.207,221.873,194.207,256
			s27.666,61.793,61.793,61.793S317.793,290.127,317.793,256"/>
		<path style="fill:#FFD06C;" d="M317.642,141.241H194.356c-7.336,0-11.52-8.377-7.124-14.248l58.209-77.612
			c5.279-7.036,15.837-7.036,21.116,0l58.209,77.612C329.162,132.864,324.978,141.241,317.642,141.241"/>
		<path style="fill:#FFD06C;" d="M194.356,370.759h123.286c7.336,0,11.52,8.377,7.124,14.248l-58.571,78.089
			c-5.102,6.797-15.289,6.797-20.392,0l-58.571-78.089C182.836,379.136,187.02,370.759,194.356,370.759"/>
	</g>
</g>
</svg>
