<?xml version="1.0" encoding="utf-8"?>
<!-- Generator: Adobe Illustrator 19.0.0, SVG Export Plug-In . SVG Version: 6.00 Build 0)  -->
<svg version="1.1" id="Layer_1" xmlns="http://www.w3.org/2000/svg" xmlns:xlink="http://www.w3.org/1999/xlink" x="0px" y="0px"
	 viewBox="-53 145.7 503.3 503.3" style="enable-background:new -53 145.7 503.3 503.3;" xml:space="preserve">
<style type="text/css">
	.st0{fill:#556080;}
	.st1{fill:#FFD06C;}
	.st2{fill:none;}
	.st3{fill:url(#XMLID_6_);}
	.st4{fill:url(#XMLID_7_);}
	.st5{fill:#ECF1F1;}
	.st6{fill:#C3CFD1;}
</style>
<g>
	<path class="st0" d="M433,649H-35.6c-9.6,0-17.4-7.8-17.4-17.4V163c0-9.6,7.8-17.4,17.4-17.4H433c9.6,0,17.4,7.8,17.4,17.4v468.6
		C450.3,641.2,442.6,649,433,649"/>
	<g>
		<polygon class="st1" points="380.9,449.4 415.6,449.4 415.6,414.7 380.9,414.7 		"/>
		<polygon class="st1" points="137.9,215.1 259.4,215.1 259.4,180.4 137.9,180.4 		"/>
	</g>
	<polygon class="st2" points="380.9,484.1 415.6,484.1 415.6,449.4 380.9,449.4 	"/>
	<linearGradient id="XMLID_6_" gradientUnits="userSpaceOnUse" x1="341.1679" y1="449.407" x2="310.985" y2="449.407">
		<stop  offset="0" style="stop-color:#000000"/>
		<stop  offset="1" style="stop-color:#000000"/>
	</linearGradient>
	<path id="XMLID_4_" class="st3" d="M346.2,649H198.7V249.8h130.2c9.6,0,17.4,7.8,17.4,17.4V649z"/>
	<linearGradient id="XMLID_7_" gradientUnits="userSpaceOnUse" x1="341.1679" y1="449.407" x2="310.985" y2="449.407">
		<stop  offset="0" style="stop-color:#000000"/>
		<stop  offset="1" style="stop-color:#000000"/>
	</linearGradient>
	<path id="XMLID_3_" class="st4" d="M198.7,649H51.1V267.2c0-9.6,7.8-17.4,17.4-17.4h130.2V649L198.7,649z"/>
	<path id="XMLID_1_" class="st5" d="M346.2,649H198.7V249.8h130.2c9.6,0,17.4,7.8,17.4,17.4V649z"/>
	<path id="XMLID_2_" class="st6" d="M198.7,649H51.1V267.2c0-9.6,7.8-17.4,17.4-17.4h130.2L198.7,649L198.7,649z"/>
</g>
</svg>
